<svg role="img" xmlns="http://www.w3.org/2000/svg" aria-hidden="true" viewBox="0 0 16 16">
                        <path d="M13.54 3.889a2.968 2.968 0 0 0 1.333-1.683 5.937 5.937 0 0 1-1.929.738 2.992 2.992 0 0 0-.996-.706 2.98 2.98 0 0 0-1.218-.254 2.92 2.92 0 0 0-2.143.889 2.929 2.929 0 0 0-.889 2.15c0 .212.027.442.08.691a8.475 8.475 0 0 1-3.484-.932A8.536 8.536 0 0 1 1.532 2.54a2.993 2.993 0 0 0-.413 1.523c0 .519.12 1 .361 1.445.24.445.57.805.988 1.08a2.873 2.873 0 0 1-1.373-.374v.04c0 .725.23 1.365.69 1.92a2.97 2.97 0 0 0 1.739 1.048 2.937 2.937 0 0 1-1.365.056 2.94 2.94 0 0 0 1.063 1.5 2.945 2.945 0 0 0 1.747.597A5.97 5.97 0 0 1 2.857 13a8.417 8.417 0 0 0 4.56 1.334c.715 0 1.404-.073 2.066-.218a8.465 8.465 0 0 0 2.007-.74 8.308 8.308 0 0 0 3.361-3.36 8.47 8.47 0 0 0 .886-2.478 8.38 8.38 0 0 0 .257-2.21v-.38a6.02 6.02 0 0 0 1.48-1.529 6.046 6.046 0 0 1-1.827.495 2.989 2.989 0 0 0 .858-1.073z"></path>
                    </svg>